<?xml version="1.0" encoding="iso-8859-1"?>
<!-- Uploaded to: SVG Repo, www.svgrepo.com, Generator: SVG Repo Mixer Tools -->
<svg fill="#000000" height="800px" width="800px" version="1.1" id="Layer_1" xmlns="http://www.w3.org/2000/svg" xmlns:xlink="http://www.w3.org/1999/xlink" 
	 viewBox="0 0 512 512" xml:space="preserve">
<g>
	<g>
		<g>
			<path d="M493.268,129.602H228.263l-30.92-84.529c-2.701-7.385-9.728-12.298-17.592-12.298H18.732C8.387,32.776,0,41.162,0,51.507
				c0,8.213,0,400.004,0,408.986c0,10.345,8.387,18.732,18.732,18.732h474.537c10.345,0,18.732-8.387,18.732-18.732
				c0-11.627,0-289.382,0-312.159C512,137.989,503.613,129.602,493.268,129.602z M474.537,441.761H37.463v-53.909h437.073V441.761z
				 M474.537,350.389H37.463V70.239h129.195l30.92,84.529c2.701,7.385,9.728,12.298,17.592,12.298h259.367V350.389z"/>
			<path d="M178.995,258.729c0,10.345,8.387,18.732,18.732,18.732h141.148c10.345,0,18.732-8.387,18.732-18.732
				s-8.387-18.732-18.732-18.732H197.727C187.382,239.997,178.995,248.384,178.995,258.729z"/>
		</g>
	</g>
</g>
</svg>